<?xml version="1.0" encoding="UTF-8"?>
<svg width="1200pt" height="1200pt" version="1.1" viewBox="0 0 1200 1200" xmlns="http://www.w3.org/2000/svg">
 <g>
  <path d="m1061.5 1153.8c-12.746 0-23.078-10.332-23.078-23.078l0.003906-1038.4h-876.94v1038.4c0 12.746-10.332 23.078-23.078 23.078s-23.078-10.332-23.078-23.078l0.003906-1061.5c0-12.746 10.332-23.078 23.078-23.078h923.09c12.746 0 23.078 10.332 23.078 23.078v1061.5c-0.003906 12.742-10.336 23.074-23.082 23.074z"/>
  <path d="m1061.5 1107.7h-923.09c-12.746 0-23.078-10.332-23.078-23.078s10.332-23.078 23.078-23.078h923.09c12.746 0 23.078 10.332 23.078 23.078-0.003906 12.746-10.336 23.078-23.082 23.078z"/>
  <path d="m969.24 392.3h-738.46c-12.746 0-23.078-10.332-23.078-23.078v-207.69c0-12.746 10.332-23.078 23.078-23.078h738.46c12.746 0 23.078 10.332 23.078 23.078v207.69c-0.003906 12.746-10.336 23.078-23.078 23.078zm-715.39-46.152h692.31v-161.54h-692.31z"/>
  <path d="m969.24 715.38h-738.46c-12.746 0-23.078-10.332-23.078-23.078v-207.69c0-12.746 10.332-23.078 23.078-23.078h738.46c12.746 0 23.078 10.332 23.078 23.078v207.69c-0.003906 12.746-10.336 23.078-23.078 23.078zm-715.39-46.152h692.31v-161.54h-692.31z"/>
  <path d="m969.24 1015.4h-738.46c-12.746 0-23.078-10.332-23.078-23.078v-207.69c0-12.746 10.332-23.078 23.078-23.078h738.46c12.746 0 23.078 10.332 23.078 23.078v207.69c-0.003906 12.746-10.336 23.078-23.078 23.078zm-715.39-46.152h692.31v-161.54h-692.31z"/>
  <path d="m693.01 300h-184.62c-12.746 0-23.078-10.332-23.078-23.078 0-12.746 10.332-23.078 23.078-23.078h184.62c12.746 0 23.078 10.332 23.078 23.078 0 12.742-10.332 23.078-23.078 23.078z"/>
  <path d="m690.4 623.07h-184.62c-12.746 0-23.078-10.332-23.078-23.078 0-12.746 10.332-23.078 23.078-23.078h184.62c12.746 0 23.078 10.332 23.078 23.078 0 12.746-10.336 23.078-23.078 23.078z"/>
  <path d="m691.36 923.07h-184.62c-12.746 0-23.078-10.332-23.078-23.078 0-12.746 10.332-23.078 23.078-23.078h184.62c12.746 0 23.078 10.332 23.078 23.078 0 12.746-10.332 23.078-23.078 23.078z"/>
 </g>
</svg>
