<?xml version="1.0" encoding="UTF-8"?>
<svg width="128pt" height="128pt" version="1.1" viewBox="0 0 128 128" xmlns="http://www.w3.org/2000/svg">
 <g>
  <path d="m113.23 123.08c-1.3594 0-2.4609-1.1016-2.4609-2.4609v-110.77h-93.539v110.77c0 1.3594-1.1016 2.4609-2.4609 2.4609s-2.4609-1.1016-2.4609-2.4609v-113.23c0-1.3594 1.1016-2.4609 2.4609-2.4609h98.461c1.3594 0 2.4609 1.1016 2.4609 2.4609v113.23c0 1.3555-1.1016 2.4609-2.4609 2.4609z"/>
  <path d="m113.23 118.15h-98.461c-1.3594 0-2.4609-1.1016-2.4609-2.4609s1.1016-2.4609 2.4609-2.4609h98.461c1.3594 0 2.4609 1.1016 2.4609 2.4609s-1.1016 2.4609-2.4609 2.4609z"/>
  <path d="m103.39 41.844h-78.77c-1.3594 0-2.4609-1.1016-2.4609-2.4609v-22.152c0-1.3594 1.1016-2.4609 2.4609-2.4609h78.77c1.3594 0 2.4609 1.1016 2.4609 2.4609v22.152c0 1.3594-1.1016 2.4609-2.4609 2.4609zm-76.309-4.9219h73.848v-17.23h-73.848z"/>
  <path d="m103.39 76.309h-78.77c-1.3594 0-2.4609-1.1016-2.4609-2.4609v-22.152c0-1.3594 1.1016-2.4609 2.4609-2.4609h78.77c1.3594 0 2.4609 1.1016 2.4609 2.4609v22.152c0 1.3555-1.1016 2.4609-2.4609 2.4609zm-76.309-4.9258h73.848v-17.23h-73.848z"/>
  <path d="m103.39 108.31h-78.77c-1.3594 0-2.4609-1.1016-2.4609-2.4609v-22.152c0-1.3594 1.1016-2.4609 2.4609-2.4609h78.77c1.3594 0 2.4609 1.1016 2.4609 2.4609v22.152c0 1.3555-1.1016 2.4609-2.4609 2.4609zm-76.309-4.9258h73.848v-17.23h-73.848z"/>
  <path d="m73.922 32h-19.691c-1.3594 0-2.4609-1.1016-2.4609-2.4609 0-1.3594 1.1016-2.4609 2.4609-2.4609h19.691c1.3594 0 2.4609 1.1016 2.4609 2.4609 0 1.3594-1.1016 2.4609-2.4609 2.4609z"/>
  <path d="m73.641 66.461h-19.691c-1.3594 0-2.4609-1.1016-2.4609-2.4609s1.1016-2.4609 2.4609-2.4609h19.691c1.3594 0 2.4609 1.1016 2.4609 2.4609 0.003907 1.3594-1.1016 2.4609-2.4609 2.4609z"/>
  <path d="m73.746 98.461h-19.691c-1.3594 0-2.4609-1.1016-2.4609-2.4609s1.1016-2.4609 2.4609-2.4609h19.691c1.3594 0 2.4609 1.1016 2.4609 2.4609s-1.1016 2.4609-2.4609 2.4609z"/>
 </g>
</svg>
