<svg data-v-423bf9ae="" xmlns="http://www.w3.org/2000/svg" viewBox="0 0 507.23490762511176 60" class="font"><!----><!----><!----><g data-v-423bf9ae="" id="b0d9bddd-5a40-4559-bb56-1edad15e16af" fill="black" transform="matrix(4.158004070067766,0,0,4.158004070067766,-3.742200770928946,-5.239085327050148)"><path d="M10.74 10.60L11.27 11.13L11.27 11.13Q11.48 11.35 11.48 11.62L11.48 11.62L11.48 11.62Q11.48 11.90 11.27 12.11L11.27 12.11L11.27 12.11Q11.05 12.33 10.78 12.33L10.78 12.33L10.78 12.33Q10.53 12.33 10.28 12.11L10.28 12.11L9.70 11.54L9.70 11.54Q8.30 12.47 6.45 12.47L6.45 12.47L6.45 12.47Q4.83 12.47 3.56 11.76L3.56 11.76L3.56 11.76Q2.30 11.05 1.60 9.77L1.60 9.77L1.60 9.77Q0.90 8.48 0.90 6.86L0.90 6.86L0.90 6.86Q0.90 5.24 1.60 3.96L1.60 3.96L1.60 3.96Q2.30 2.69 3.56 1.97L3.56 1.97L3.56 1.97Q4.83 1.26 6.45 1.26L6.45 1.26L6.45 1.26Q8.06 1.26 9.33 1.97L9.33 1.97L9.33 1.97Q10.60 2.69 11.30 3.96L11.30 3.96L11.30 3.96Q12.01 5.24 12.01 6.86L12.01 6.86L12.01 6.86Q12.01 7.97 11.68 8.92L11.68 8.92L11.68 8.92Q11.35 9.87 10.74 10.60L10.74 10.60ZM6.45 11.16L6.45 11.16Q7.71 11.16 8.69 10.53L8.69 10.53L7.35 9.18L7.35 9.18Q7.13 8.93 7.13 8.68L7.13 8.68L7.13 8.68Q7.13 8.41 7.35 8.19L7.35 8.19L7.35 8.19Q7.57 7.97 7.85 7.97L7.85 7.97L7.85 7.97Q8.13 7.97 8.34 8.19L8.34 8.19L9.73 9.59L9.73 9.59Q10.61 8.43 10.61 6.86L10.61 6.86L10.61 6.86Q10.61 5.66 10.08 4.68L10.08 4.68L10.08 4.68Q9.55 3.70 8.60 3.14L8.60 3.14L8.60 3.14Q7.66 2.58 6.45 2.58L6.45 2.58L6.45 2.58Q5.25 2.58 4.30 3.14L4.30 3.14L4.30 3.14Q3.36 3.70 2.83 4.68L2.83 4.68L2.83 4.68Q2.30 5.66 2.30 6.86L2.30 6.86L2.30 6.86Q2.30 8.06 2.83 9.04L2.83 9.04L2.83 9.04Q3.36 10.02 4.31 10.59L4.31 10.59L4.31 10.59Q5.26 11.16 6.45 11.16L6.45 11.16ZM20.47 4.66L20.47 4.66Q20.79 4.66 20.99 4.86L20.99 4.86L20.99 4.86Q21.18 5.05 21.18 5.38L21.18 5.38L21.18 11.62L21.18 11.62Q21.18 11.93 20.99 12.13L20.99 12.13L20.99 12.13Q20.79 12.33 20.47 12.33L20.47 12.33L20.47 12.33Q20.16 12.33 19.96 12.13L19.96 12.13L19.96 12.13Q19.75 11.93 19.75 11.62L19.75 11.62L19.75 11.47L19.75 11.47Q19.31 11.91 18.69 12.16L18.69 12.16L18.69 12.16Q18.07 12.40 17.37 12.40L17.37 12.40L17.37 12.40Q16.41 12.40 15.64 11.98L15.64 11.98L15.64 11.98Q14.87 11.56 14.43 10.76L14.43 10.76L14.43 10.76Q14 9.95 14 8.82L14 8.82L14 5.38L14 5.38Q14 5.07 14.20 4.86L14.20 4.86L14.20 4.86Q14.41 4.66 14.71 4.66L14.71 4.66L14.71 4.66Q15.02 4.66 15.22 4.86L15.22 4.86L15.22 4.86Q15.43 5.07 15.43 5.38L15.43 5.38L15.43 8.82L15.43 8.82Q15.43 9.95 16.04 10.54L16.04 10.54L16.04 10.54Q16.65 11.12 17.65 11.12L17.65 11.12L17.65 11.12Q18.24 11.12 18.73 10.88L18.73 10.88L18.73 10.88Q19.21 10.64 19.48 10.23L19.48 10.23L19.48 10.23Q19.75 9.83 19.75 9.32L19.75 9.32L19.75 5.38L19.75 5.38Q19.75 5.05 19.96 4.86L19.96 4.86L19.96 4.86Q20.16 4.66 20.47 4.66L20.47 4.66ZM27.17 4.62L27.17 4.62Q28.25 4.62 29.13 5.13L29.13 5.13L29.13 5.13Q30.00 5.64 30.51 6.53L30.51 6.53L30.51 6.53Q31.02 7.42 31.02 8.51L31.02 8.51L31.02 11.63L31.02 11.63Q31.02 11.94 30.82 12.14L30.82 12.14L30.82 12.14Q30.62 12.35 30.31 12.35L30.31 12.35L30.31 12.35Q30.00 12.35 29.80 12.14L29.80 12.14L29.80 12.14Q29.60 11.94 29.60 11.63L29.60 11.63L29.60 11.12L29.60 11.12Q29.11 11.72 28.41 12.05L28.41 12.05L28.41 12.05Q27.71 12.39 26.89 12.39L26.89 12.39L26.89 12.39Q25.89 12.39 25.07 11.89L25.07 11.89L25.07 11.89Q24.25 11.38 23.78 10.49L23.78 10.49L23.78 10.49Q23.31 9.60 23.31 8.51L23.31 8.51L23.31 8.51Q23.31 7.42 23.81 6.53L23.81 6.53L23.81 6.53Q24.32 5.64 25.21 5.13L25.21 5.13L25.21 5.13Q26.10 4.62 27.17 4.62L27.17 4.62ZM27.17 11.13L27.17 11.13Q27.87 11.13 28.44 10.79L28.44 10.79L28.44 10.79Q29.01 10.44 29.33 9.85L29.33 9.85L29.33 9.85Q29.65 9.25 29.65 8.51L29.65 8.51L29.65 8.51Q29.65 7.77 29.33 7.17L29.33 7.17L29.33 7.17Q29.01 6.57 28.44 6.22L28.44 6.22L28.44 6.22Q27.87 5.88 27.17 5.88L27.17 5.88L27.17 5.88Q26.47 5.88 25.91 6.22L25.91 6.22L25.91 6.22Q25.34 6.57 25.01 7.17L25.01 7.17L25.01 7.17Q24.68 7.77 24.68 8.51L24.68 8.51L24.68 8.51Q24.68 9.25 25.01 9.85L25.01 9.85L25.01 9.85Q25.34 10.44 25.91 10.79L25.91 10.79L25.91 10.79Q26.47 11.13 27.17 11.13L27.17 11.13ZM32.87 2.10L32.87 2.10Q32.87 1.79 33.07 1.60L33.07 1.60L33.07 1.60Q33.26 1.40 33.57 1.40L33.57 1.40L33.57 1.40Q33.88 1.40 34.08 1.60L34.08 1.60L34.08 1.60Q34.27 1.79 34.27 2.10L34.27 2.10L34.27 9.74L34.27 9.74Q34.27 10.26 34.47 10.60L34.47 10.60L34.47 10.60Q34.66 10.93 34.97 10.93L34.97 10.93L35.32 10.93L35.32 10.93Q35.60 10.93 35.78 11.13L35.78 11.13L35.78 11.13Q35.95 11.33 35.95 11.63L35.95 11.63L35.95 11.63Q35.95 11.94 35.69 12.14L35.69 12.14L35.69 12.14Q35.42 12.33 35 12.33L35 12.33L34.97 12.33L34.97 12.33Q34.37 12.33 33.89 12.00L33.89 12.00L33.89 12.00Q33.40 11.68 33.14 11.08L33.14 11.08L33.14 11.08Q32.87 10.49 32.87 9.74L32.87 9.74L32.87 2.10ZM37.49 5.39L37.49 5.39Q37.49 5.07 37.70 4.87L37.70 4.87L37.70 4.87Q37.90 4.68 38.21 4.68L38.21 4.68L38.21 4.68Q38.53 4.68 38.72 4.87L38.72 4.87L38.72 4.87Q38.92 5.07 38.92 5.39L38.92 5.39L38.92 11.62L38.92 11.62Q38.92 11.93 38.72 12.13L38.72 12.13L38.72 12.13Q38.53 12.33 38.21 12.33L38.21 12.33L38.21 12.33Q37.90 12.33 37.70 12.13L37.70 12.13L37.70 12.13Q37.49 11.93 37.49 11.62L37.49 11.62L37.49 5.39ZM38.21 1.58L38.21 1.58Q38.58 1.58 38.86 1.85L38.86 1.85L38.86 1.85Q39.13 2.13 39.13 2.51L39.13 2.51L39.13 2.51Q39.13 2.88 38.86 3.16L38.86 3.16L38.86 3.16Q38.58 3.43 38.21 3.43L38.21 3.43L38.21 3.43Q37.83 3.43 37.56 3.16L37.56 3.16L37.56 3.16Q37.28 2.88 37.28 2.51L37.28 2.51L37.28 2.51Q37.28 2.13 37.56 1.85L37.56 1.85L37.56 1.85Q37.83 1.58 38.21 1.58L38.21 1.58ZM44.84 10.93L44.84 10.93Q45.09 10.93 45.27 11.13L45.27 11.13L45.27 11.13Q45.44 11.33 45.44 11.63L45.44 11.63L45.44 11.63Q45.44 11.94 45.21 12.14L45.21 12.14L45.21 12.14Q44.98 12.33 44.62 12.33L44.62 12.33L44.37 12.33L44.37 12.33Q43.68 12.33 43.11 11.98L43.11 11.98L43.11 11.98Q42.55 11.62 42.22 11.00L42.22 11.00L42.22 11.00Q41.90 10.39 41.90 9.62L41.90 9.62L41.90 6.16L41.26 6.16L41.26 6.16Q40.96 6.16 40.78 5.99L40.78 5.99L40.78 5.99Q40.60 5.82 40.60 5.57L40.60 5.57L40.60 5.57Q40.60 5.29 40.78 5.12L40.78 5.12L40.78 5.12Q40.96 4.96 41.26 4.96L41.26 4.96L41.90 4.96L41.90 2.94L41.90 2.94Q41.90 2.63 42.10 2.44L42.10 2.44L42.10 2.44Q42.29 2.24 42.60 2.24L42.60 2.24L42.60 2.24Q42.91 2.24 43.11 2.44L43.11 2.44L43.11 2.44Q43.30 2.63 43.30 2.94L43.30 2.94L43.30 4.96L44.49 4.96L44.49 4.96Q44.79 4.96 44.97 5.12L44.97 5.12L44.97 5.12Q45.15 5.29 45.15 5.57L45.15 5.57L45.15 5.57Q45.15 5.82 44.97 5.99L44.97 5.99L44.97 5.99Q44.79 6.16 44.49 6.16L44.49 6.16L43.30 6.16L43.30 9.62L43.30 9.62Q43.30 10.18 43.61 10.56L43.61 10.56L43.61 10.56Q43.92 10.93 44.37 10.93L44.37 10.93L44.84 10.93ZM53.05 4.75L53.05 4.75Q53.48 4.91 53.48 5.29L53.48 5.29L53.48 5.29Q53.48 5.43 53.40 5.63L53.40 5.63L49.11 15.26L49.11 15.26Q48.94 15.69 48.57 15.69L48.57 15.69L48.57 15.69Q48.43 15.69 48.23 15.61L48.23 15.61L48.23 15.61Q47.81 15.43 47.81 15.06L47.81 15.06L47.81 15.06Q47.81 14.90 47.89 14.73L47.89 14.73L49.29 11.58L46.14 5.60L46.14 5.60Q46.07 5.47 46.07 5.31L46.07 5.31L46.07 5.31Q46.07 5.12 46.19 4.97L46.19 4.97L46.19 4.97Q46.30 4.82 46.48 4.73L46.48 4.73L46.48 4.73Q46.61 4.68 46.76 4.68L46.76 4.68L46.76 4.68Q47.15 4.68 47.35 5.07L47.35 5.07L49.91 10.16L52.16 5.08L52.16 5.08Q52.35 4.68 52.71 4.68L52.71 4.68L52.71 4.68Q52.89 4.68 53.05 4.75L53.05 4.75ZM63.88 1.26L63.88 1.26Q64.95 1.26 65.72 1.54L65.72 1.54L65.72 1.54Q66.50 1.82 67.30 2.46L67.30 2.46L67.30 2.46Q67.47 2.59 67.52 2.72L67.52 2.72L67.52 2.72Q67.58 2.86 67.58 3.04L67.58 3.04L67.58 3.04Q67.58 3.32 67.38 3.50L67.38 3.50L67.38 3.50Q67.17 3.68 66.91 3.68L66.91 3.68L66.91 3.68Q66.64 3.68 66.42 3.50L66.42 3.50L66.42 3.50Q65.84 3.01 65.30 2.79L65.30 2.79L65.30 2.79Q64.75 2.58 63.88 2.58L63.88 2.58L63.88 2.58Q62.79 2.58 61.87 3.15L61.87 3.15L61.87 3.15Q60.96 3.72 60.42 4.71L60.42 4.71L60.42 4.71Q59.88 5.70 59.88 6.86L59.88 6.86L59.88 6.86Q59.88 8.04 60.42 9.02L60.42 9.02L60.42 9.02Q60.96 10.00 61.87 10.57L61.87 10.57L61.87 10.57Q62.79 11.14 63.88 11.14L63.88 11.14L63.88 11.14Q65.23 11.14 66.46 10.22L66.46 10.22L66.46 10.22Q66.70 10.05 66.92 10.05L66.92 10.05L66.92 10.05Q67.19 10.05 67.36 10.24L67.36 10.24L67.36 10.24Q67.54 10.43 67.54 10.74L67.54 10.74L67.54 10.74Q67.54 11.03 67.31 11.26L67.31 11.26L67.31 11.26Q65.80 12.47 63.88 12.47L63.88 12.47L63.88 12.47Q62.38 12.47 61.15 11.73L61.15 11.73L61.15 11.73Q59.91 10.99 59.19 9.70L59.19 9.70L59.19 9.70Q58.48 8.41 58.48 6.86L58.48 6.86L58.48 6.86Q58.48 5.32 59.19 4.04L59.19 4.04L59.19 4.04Q59.91 2.76 61.15 2.01L61.15 2.01L61.15 2.01Q62.38 1.26 63.88 1.26L63.88 1.26ZM73.19 4.62L73.19 4.62Q74.27 4.62 75.15 5.13L75.15 5.13L75.15 5.13Q76.02 5.64 76.53 6.53L76.53 6.53L76.53 6.53Q77.04 7.42 77.04 8.51L77.04 8.51L77.04 11.63L77.04 11.63Q77.04 11.94 76.84 12.14L76.84 12.14L76.84 12.14Q76.64 12.35 76.33 12.35L76.33 12.35L76.33 12.35Q76.02 12.35 75.82 12.14L75.82 12.14L75.82 12.14Q75.61 11.94 75.61 11.63L75.61 11.63L75.61 11.12L75.61 11.12Q75.12 11.72 74.42 12.05L74.42 12.05L74.42 12.05Q73.72 12.39 72.91 12.39L72.91 12.39L72.91 12.39Q71.90 12.39 71.09 11.89L71.09 11.89L71.09 11.89Q70.27 11.38 69.80 10.49L69.80 10.49L69.80 10.49Q69.33 9.60 69.33 8.51L69.33 8.51L69.33 8.51Q69.33 7.42 69.83 6.53L69.83 6.53L69.83 6.53Q70.34 5.64 71.23 5.13L71.23 5.13L71.23 5.13Q72.11 4.62 73.19 4.62L73.19 4.62ZM73.19 11.13L73.19 11.13Q73.89 11.13 74.46 10.79L74.46 10.79L74.46 10.79Q75.03 10.44 75.35 9.85L75.35 9.85L75.35 9.85Q75.67 9.25 75.67 8.51L75.67 8.51L75.67 8.51Q75.67 7.77 75.35 7.17L75.35 7.17L75.35 7.17Q75.03 6.57 74.46 6.22L74.46 6.22L74.46 6.22Q73.89 5.88 73.19 5.88L73.19 5.88L73.19 5.88Q72.49 5.88 71.93 6.22L71.93 6.22L71.93 6.22Q71.36 6.57 71.03 7.17L71.03 7.17L71.03 7.17Q70.70 7.77 70.70 8.51L70.70 8.51L70.70 8.51Q70.70 9.25 71.03 9.85L71.03 9.85L71.03 9.85Q71.36 10.44 71.93 10.79L71.93 10.79L71.93 10.79Q72.49 11.13 73.19 11.13L73.19 11.13ZM79.88 1.40L79.88 1.40Q79.56 1.40 79.37 1.60L79.37 1.60L79.37 1.60Q79.17 1.79 79.17 2.11L79.17 2.11L79.17 8.50L79.17 8.50Q79.17 9.59 79.68 10.48L79.68 10.48L79.68 10.48Q80.19 11.37 81.07 11.88L81.07 11.88L81.07 11.88Q81.94 12.39 83.02 12.39L83.02 12.39L83.02 12.39Q84.10 12.39 84.99 11.88L84.99 11.88L84.99 11.88Q85.88 11.37 86.38 10.48L86.38 10.48L86.38 10.48Q86.88 9.59 86.88 8.50L86.88 8.50L86.88 8.50Q86.88 7.41 86.42 6.52L86.42 6.52L86.42 6.52Q85.95 5.63 85.13 5.12L85.13 5.12L85.13 5.12Q84.31 4.62 83.30 4.62L83.30 4.62L83.30 4.62Q82.49 4.62 81.79 4.96L81.79 4.96L81.79 4.96Q81.09 5.29 80.60 5.89L80.60 5.89L80.60 2.11L80.60 2.11Q80.60 1.79 80.40 1.60L80.40 1.60L80.40 1.60Q80.19 1.40 79.88 1.40L79.88 1.40ZM83.02 11.13L83.02 11.13Q82.32 11.13 81.75 10.79L81.75 10.79L81.75 10.79Q81.19 10.44 80.86 9.84L80.86 9.84L80.86 9.84Q80.54 9.24 80.54 8.50L80.54 8.50L80.54 8.50Q80.54 7.76 80.86 7.16L80.86 7.16L80.86 7.16Q81.19 6.57 81.75 6.22L81.75 6.22L81.75 6.22Q82.32 5.88 83.02 5.88L83.02 5.88L83.02 5.88Q83.72 5.88 84.29 6.22L84.29 6.22L84.29 6.22Q84.85 6.57 85.18 7.16L85.18 7.16L85.18 7.16Q85.51 7.76 85.51 8.50L85.51 8.50L85.51 8.50Q85.51 9.24 85.18 9.84L85.18 9.84L85.18 9.84Q84.85 10.44 84.29 10.79L84.29 10.79L84.29 10.79Q83.72 11.13 83.02 11.13L83.02 11.13ZM89.15 5.39L89.15 5.39Q89.15 5.07 89.36 4.87L89.36 4.87L89.36 4.87Q89.56 4.68 89.87 4.68L89.87 4.68L89.87 4.68Q90.19 4.68 90.38 4.87L90.38 4.87L90.38 4.87Q90.58 5.07 90.58 5.39L90.58 5.39L90.58 11.62L90.58 11.62Q90.58 11.93 90.38 12.13L90.38 12.13L90.38 12.13Q90.19 12.33 89.87 12.33L89.87 12.33L89.87 12.33Q89.56 12.33 89.36 12.13L89.36 12.13L89.36 12.13Q89.15 11.93 89.15 11.62L89.15 11.62L89.15 5.39ZM89.87 1.58L89.87 1.58Q90.24 1.58 90.52 1.85L90.52 1.85L90.52 1.85Q90.79 2.13 90.79 2.51L90.79 2.51L90.79 2.51Q90.79 2.88 90.52 3.16L90.52 3.16L90.52 3.16Q90.24 3.43 89.87 3.43L89.87 3.43L89.87 3.43Q89.49 3.43 89.22 3.16L89.22 3.16L89.22 3.16Q88.94 2.88 88.94 2.51L88.94 2.51L88.94 2.51Q88.94 2.13 89.22 1.85L89.22 1.85L89.22 1.85Q89.49 1.58 89.87 1.58L89.87 1.58ZM97.05 4.61L97.05 4.61Q98.01 4.61 98.78 5.03L98.78 5.03L98.78 5.03Q99.55 5.45 99.99 6.25L99.99 6.25L99.99 6.25Q100.42 7.06 100.42 8.19L100.42 8.19L100.42 11.63L100.42 11.63Q100.42 11.94 100.22 12.14L100.22 12.14L100.22 12.14Q100.02 12.35 99.71 12.35L99.71 12.35L99.71 12.35Q99.40 12.35 99.20 12.14L99.20 12.14L99.20 12.14Q98.99 11.94 98.99 11.63L98.99 11.63L98.99 8.19L98.99 8.19Q98.99 7.06 98.39 6.47L98.39 6.47L98.39 6.47Q97.78 5.89 96.77 5.89L96.77 5.89L96.77 5.89Q96.18 5.89 95.70 6.13L95.70 6.13L95.70 6.13Q95.21 6.37 94.94 6.78L94.94 6.78L94.94 6.78Q94.67 7.18 94.67 7.69L94.67 7.69L94.67 11.63L94.67 11.63Q94.67 11.94 94.47 12.14L94.47 12.14L94.47 12.14Q94.28 12.35 93.95 12.35L93.95 12.35L93.95 12.35Q93.65 12.35 93.44 12.14L93.44 12.14L93.44 12.14Q93.24 11.94 93.24 11.63L93.24 11.63L93.24 5.39L93.24 5.39Q93.24 5.07 93.44 4.87L93.44 4.87L93.44 4.87Q93.65 4.68 93.95 4.68L93.95 4.68L93.95 4.68Q94.28 4.68 94.47 4.87L94.47 4.87L94.47 4.87Q94.67 5.07 94.67 5.39L94.67 5.39L94.67 5.54L94.67 5.54Q95.12 5.10 95.73 4.85L95.73 4.85L95.73 4.85Q96.35 4.61 97.05 4.61L97.05 4.61ZM109.66 8.39L109.66 8.39Q109.66 8.65 109.48 8.83L109.48 8.83L109.48 8.83Q109.30 9.00 109.02 9.00L109.02 9.00L103.70 9.00L103.70 9.00Q103.85 9.98 104.59 10.58L104.59 10.58L104.59 10.58Q105.32 11.19 106.39 11.19L106.39 11.19L106.39 11.19Q106.81 11.19 107.26 11.03L107.26 11.03L107.26 11.03Q107.72 10.88 108.01 10.65L108.01 10.65L108.01 10.65Q108.21 10.50 108.47 10.50L108.47 10.50L108.47 10.50Q108.74 10.50 108.89 10.64L108.89 10.64L108.89 10.64Q109.14 10.85 109.14 11.12L109.14 11.12L109.14 11.12Q109.14 11.37 108.92 11.54L108.92 11.54L108.92 11.54Q108.44 11.91 107.74 12.15L107.74 12.15L107.74 12.15Q107.03 12.39 106.39 12.39L106.39 12.39L106.39 12.39Q105.24 12.39 104.33 11.89L104.33 11.89L104.33 11.89Q103.42 11.40 102.91 10.51L102.91 10.51L102.91 10.51Q102.40 9.63 102.40 8.51L102.40 8.51L102.40 8.51Q102.40 7.39 102.88 6.50L102.88 6.50L102.88 6.50Q103.36 5.61 104.22 5.12L104.22 5.12L104.22 5.12Q105.08 4.62 106.18 4.62L106.18 4.62L106.18 4.62Q107.25 4.62 108.04 5.10L108.04 5.10L108.04 5.10Q108.82 5.57 109.24 6.43L109.24 6.43L109.24 6.43Q109.66 7.28 109.66 8.39L109.66 8.39ZM106.18 5.82L106.18 5.82Q105.15 5.82 104.52 6.38L104.52 6.38L104.52 6.38Q103.88 6.94 103.71 7.88L103.71 7.88L108.37 7.88L108.37 7.88Q108.25 6.94 107.67 6.38L107.67 6.38L107.67 6.38Q107.10 5.82 106.18 5.82L106.18 5.82ZM114.74 10.93L114.74 10.93Q115.00 10.93 115.17 11.13L115.17 11.13L115.17 11.13Q115.35 11.33 115.35 11.63L115.35 11.63L115.35 11.63Q115.35 11.94 115.12 12.14L115.12 12.14L115.12 12.14Q114.88 12.33 114.52 12.33L114.52 12.33L114.27 12.33L114.27 12.33Q113.58 12.33 113.02 11.98L113.02 11.98L113.02 11.98Q112.45 11.62 112.13 11.00L112.13 11.00L112.13 11.00Q111.80 10.39 111.80 9.62L111.80 9.62L111.80 6.16L111.16 6.16L111.16 6.16Q110.87 6.16 110.68 5.99L110.68 5.99L110.68 5.99Q110.50 5.82 110.50 5.57L110.50 5.57L110.50 5.57Q110.50 5.29 110.68 5.12L110.68 5.12L110.68 5.12Q110.87 4.96 111.16 4.96L111.16 4.96L111.80 4.96L111.80 2.94L111.80 2.94Q111.80 2.63 112.00 2.44L112.00 2.44L112.00 2.44Q112.20 2.24 112.50 2.24L112.50 2.24L112.50 2.24Q112.81 2.24 113.01 2.44L113.01 2.44L113.01 2.44Q113.20 2.63 113.20 2.94L113.20 2.94L113.20 4.96L114.39 4.96L114.39 4.96Q114.69 4.96 114.87 5.12L114.87 5.12L114.87 5.12Q115.05 5.29 115.05 5.57L115.05 5.57L115.05 5.57Q115.05 5.82 114.87 5.99L114.87 5.99L114.87 5.99Q114.69 6.16 114.39 6.16L114.39 6.16L113.20 6.16L113.20 9.62L113.20 9.62Q113.20 10.18 113.51 10.56L113.51 10.56L113.51 10.56Q113.82 10.93 114.27 10.93L114.27 10.93L114.74 10.93ZM119.78 4.62L119.78 4.62Q120.69 4.62 121.42 4.91L121.42 4.91L121.42 4.91Q122.14 5.21 122.56 5.73L122.56 5.73L122.56 5.73Q122.74 5.95 122.74 6.17L122.74 6.17L122.74 6.17Q122.74 6.41 122.50 6.61L122.50 6.61L122.50 6.61Q122.35 6.72 122.11 6.72L122.11 6.72L122.11 6.72Q121.74 6.72 121.45 6.45L121.45 6.45L121.45 6.45Q121.10 6.13 120.71 6.00L120.71 6.00L120.71 6.00Q120.32 5.87 119.76 5.87L119.76 5.87L119.76 5.87Q119.11 5.87 118.70 6.08L118.70 6.08L118.70 6.08Q118.29 6.30 118.29 6.69L118.29 6.69L118.29 6.69Q118.29 6.97 118.43 7.16L118.43 7.16L118.43 7.16Q118.57 7.35 118.96 7.51L118.96 7.51L118.96 7.51Q119.35 7.67 120.09 7.83L120.09 7.83L120.09 7.83Q121.62 8.13 122.26 8.68L122.26 8.68L122.26 8.68Q122.89 9.23 122.89 10.09L122.89 10.09L122.89 10.09Q122.89 10.74 122.54 11.26L122.54 11.26L122.54 11.26Q122.19 11.79 121.51 12.09L121.51 12.09L121.51 12.09Q120.83 12.39 119.88 12.39L119.88 12.39L119.88 12.39Q118.93 12.39 118.09 12.10L118.09 12.10L118.09 12.10Q117.25 11.80 116.77 11.33L116.77 11.33L116.77 11.33Q116.59 11.14 116.59 10.89L116.59 10.89L116.59 10.89Q116.59 10.56 116.87 10.35L116.87 10.35L116.87 10.35Q117.14 10.15 117.36 10.15L117.36 10.15L117.36 10.15Q117.64 10.15 117.89 10.40L117.89 10.40L117.89 10.40Q118.16 10.70 118.69 10.91L118.69 10.91L118.69 10.91Q119.22 11.13 119.83 11.13L119.83 11.13L119.83 11.13Q120.62 11.13 121.07 10.86L121.07 10.86L121.07 10.86Q121.51 10.60 121.51 10.15L121.51 10.15L121.51 10.15Q121.51 9.72 121.07 9.43L121.07 9.43L121.07 9.43Q120.64 9.14 119.60 8.95L119.60 8.95L119.60 8.95Q116.91 8.43 116.91 6.73L116.91 6.73L116.91 6.73Q116.91 6.05 117.32 5.57L117.32 5.57L117.32 5.57Q117.73 5.10 118.38 4.86L118.38 4.86L118.38 4.86Q119.04 4.62 119.78 4.62L119.78 4.62Z"></path></g><!----><!----></svg>