<?xml version="1.0" encoding="UTF-8"?>
<svg fill="#ffffff" width="100pt" height="100pt" version="1.1" viewBox="0 0 100 100" xmlns="http://www.w3.org/2000/svg">
 <g>
  <path d="m88.461 96.152c-1.0625 0-1.9219-0.85938-1.9219-1.9219v-86.539h-73.078v86.539c0 1.0625-0.85938 1.9219-1.9219 1.9219s-1.9219-0.85938-1.9219-1.9219l-0.003907-88.461c0-1.0625 0.85938-1.9219 1.9219-1.9219h76.926c1.0625 0 1.9219 0.85938 1.9219 1.9219v88.461c0.003907 1.0625-0.85937 1.9219-1.9219 1.9219z"/>
  <path d="m88.461 92.309h-76.922c-1.0625 0-1.9219-0.85938-1.9219-1.9219s0.85937-1.9219 1.9219-1.9219h76.926c1.0625 0 1.9219 0.85938 1.9219 1.9219 0 1.0586-0.86328 1.9219-1.9258 1.9219z"/>
  <path d="m80.77 32.691h-61.539c-1.0625 0-1.9219-0.85938-1.9219-1.9219v-17.309c0-1.0625 0.85938-1.9219 1.9219-1.9219h61.539c1.0625 0 1.9219 0.85938 1.9219 1.9219v17.309c0 1.0625-0.85938 1.9219-1.9219 1.9219zm-59.613-3.8477h57.691v-13.461h-57.691z"/>
  <path d="m80.77 59.613h-61.539c-1.0625 0-1.9219-0.85938-1.9219-1.9219v-17.309c0-1.0625 0.85938-1.9219 1.9219-1.9219h61.539c1.0625 0 1.9219 0.85937 1.9219 1.9219v17.309c0 1.0625-0.85938 1.9219-1.9219 1.9219zm-59.613-3.8438h57.691v-13.461h-57.691z"/>
  <path d="m80.77 84.613h-61.539c-1.0625 0-1.9219-0.85938-1.9219-1.9219v-17.309c0-1.0625 0.85938-1.9219 1.9219-1.9219h61.539c1.0625 0 1.9219 0.85937 1.9219 1.9219v17.309c0 1.0625-0.85938 1.9219-1.9219 1.9219zm-59.613-3.8438h57.691v-13.461h-57.691z"/>
  <path d="m57.75 25h-15.383c-1.0625 0-1.9219-0.85938-1.9219-1.9219s0.85938-1.9219 1.9219-1.9219h15.383c1.0625 0 1.9219 0.85938 1.9219 1.9219 0.003906 1.0586-0.85938 1.9219-1.9219 1.9219z"/>
  <path d="m57.531 51.922h-15.383c-1.0625 0-1.9219-0.85938-1.9219-1.9219s0.85938-1.9219 1.9219-1.9219h15.383c1.0625 0 1.9219 0.85938 1.9219 1.9219 0.003906 1.0625-0.85938 1.9219-1.9219 1.9219z"/>
  <path d="m57.613 76.922h-15.383c-1.0625 0-1.9219-0.85938-1.9219-1.9219s0.85938-1.9219 1.9219-1.9219h15.383c1.0625 0 1.9219 0.85938 1.9219 1.9219s-0.85938 1.9219-1.9219 1.9219z"/>
 </g>
</svg>
